<svg width="195" height="52" viewBox="0 0 195 52" fill="none" xmlns="http://www.w3.org/2000/svg">
<path d="M26.2433 16.4438H18.2467V11.9001C18.2467 6.80351 17.2048 4.35136 15.1208 4.54369C13.0368 4.54369 11.9706 6.68331 11.9222 10.9626C12.0191 12.3569 12.528 13.583 13.4488 14.6408C14.4181 15.6505 15.6054 16.7323 17.0109 17.8863C18.4164 19.0402 19.8218 20.4346 21.2273 22.0693C22.6327 23.7041 23.8201 25.7957 24.7894 28.344C25.7587 30.8442 26.2433 34.0657 26.2433 38.0083C26.2433 40.172 25.9041 42.3356 25.2256 44.4993C24.5955 46.663 23.5535 48.466 22.0996 49.9085C20.6457 51.3028 18.7071 52 16.2839 52C14.2484 52 12.7218 51.4711 11.7041 50.4133C10.6863 49.3555 9.9836 47.9852 9.59589 46.3024C9.20818 44.5714 9.03855 42.6482 9.08702 40.5326L7.99658 51.3509H0L4.43446 27.6227H11.9222V40.0999C11.9222 45.1965 12.9884 47.6486 15.1208 47.4563C16.1385 47.4563 16.914 46.5668 17.4471 44.7878C17.9802 43.0088 18.2467 40.8451 18.2467 38.2968C18.2467 35.3158 17.7621 32.8877 16.7928 31.0125C15.8235 29.1373 14.6119 27.5506 13.158 26.2524C11.7525 24.9542 10.3471 23.7041 8.94163 22.5021C7.53617 21.3 6.3488 19.9057 5.37951 18.319C4.41023 16.7323 3.92559 14.6648 3.92559 12.1165C3.92559 8.84697 4.9918 6.01017 7.12422 3.6061C9.25664 1.20203 11.9222 0 15.1208 0C18.271 0 20.9123 1.20203 23.0447 3.6061C25.1771 6.01017 26.2433 8.84697 26.2433 12.1165V16.4438Z" fill="#FB0101"/>
<path d="M39.6211 12.1886H50.9617V51.1345H42.8924V46.8793C42.3109 48.3218 41.5112 49.4757 40.4935 50.3412C39.5242 51.2067 38.3368 51.6394 36.9313 51.6394C34.4597 51.6394 32.4242 50.4374 30.8249 48.0333C29.2256 45.6292 28.4259 42.7924 28.4259 39.5229V23.8003C28.4259 20.5307 29.4921 17.7901 31.6245 15.5784C33.7569 13.3185 36.4225 12.1886 39.6211 12.1886ZM42.8924 28.6325V16.2996C42.3593 16.2515 41.6081 16.2275 40.6388 16.2275C39.6211 16.2275 38.676 16.8285 37.8037 18.0305C36.9313 19.1845 36.4952 21.0356 36.4952 23.5839V37.215C36.4952 39.7633 36.5921 42.0712 36.7859 44.1387C36.9798 46.1581 37.6098 47.1678 38.676 47.1678C39.8877 47.1678 40.7842 46.0139 41.3658 43.706C41.9958 41.3981 42.4078 38.7776 42.6016 35.8447C42.7955 32.9117 42.8924 30.5076 42.8924 28.6325Z" fill="#FB0101"/>
<path d="M62.2756 51.1345H54.279V0.432735H62.2756V51.1345Z" fill="#FB0101"/>
<path d="M87.5176 25.387L73.1965 35.1234V39.8835C73.1965 44.9801 74.2385 47.4563 76.3224 47.3121C78.4064 47.3121 79.4484 44.8359 79.4484 39.8835V36.5659H87.5176V39.6671C87.5176 42.9367 86.4272 45.7735 84.2463 48.1775C82.1139 50.5816 79.4726 51.7836 76.3224 51.7836C73.1238 51.7836 70.4583 50.5816 68.3259 48.1775C66.1934 45.7735 65.1272 42.9367 65.1272 39.6671V23.8003C65.1272 20.5307 66.1934 17.6939 68.3259 15.2899C70.4583 12.8858 73.1238 11.6838 76.3224 11.6838C79.4726 11.6838 82.1139 12.8858 84.2463 15.2899C86.4272 17.6939 87.5176 20.5307 87.5176 23.8003V25.387ZM73.1965 23.5839V31.2288L79.4484 26.9015V23.5839C79.4484 18.4873 78.4064 16.0351 76.3224 16.2275C74.2385 16.2275 73.1965 18.6796 73.1965 23.5839Z" fill="#FB0101"/>
<path d="M96.7506 20.4105C96.7506 21.9972 97.211 23.4156 98.1318 24.6657C99.1011 25.8678 100.288 27.0217 101.694 28.1276C103.099 29.1854 104.505 30.3153 105.91 31.5173C107.316 32.6713 108.479 33.9935 109.4 35.4841C110.369 36.9265 110.878 38.6334 110.926 40.6047C110.926 43.8743 109.909 46.5428 107.873 48.6103C105.886 50.6297 103.317 51.6394 100.167 51.6394C98.0349 51.6394 96.2902 51.1826 94.9332 50.2691C93.6247 49.3555 92.5585 48.1295 91.7346 46.5908C90.9591 45.0522 90.3049 43.3454 89.7718 41.4702L96.9687 38.9459C97.211 40.196 97.4291 41.4702 97.623 42.7684C97.8653 44.0185 98.1803 45.1003 98.568 46.0139C99.0042 46.8793 99.6827 47.3121 100.604 47.3121C101.088 47.3121 101.645 46.9995 102.276 46.3745C102.954 45.7013 103.293 44.5955 103.293 43.0569C103.293 41.6625 102.784 40.4364 101.767 39.3786C100.797 38.2728 99.5858 37.1909 98.1318 36.1331C96.6779 35.0754 95.224 33.9454 93.7701 32.7434C92.3646 31.4933 91.153 30.0749 90.1353 28.4882C89.166 26.8534 88.6813 24.9302 88.6813 22.7184C88.6813 19.4008 89.7475 16.7564 91.88 14.785C94.0124 12.7656 96.6779 11.7559 99.8765 11.7559C101.96 11.7559 103.657 12.2367 104.965 13.1983C106.322 14.1119 107.413 15.338 108.237 16.8766C109.06 18.3671 109.715 20.0499 110.199 21.9251L103.002 24.5215C102.76 23.2714 102.542 22.0213 102.348 20.7712C102.154 19.473 101.839 18.3911 101.403 17.5257C100.967 16.6121 100.313 16.1553 99.4404 16.1553C98.9557 16.1553 98.3742 16.4679 97.6957 17.0929C97.0656 17.718 96.7506 18.8239 96.7506 20.4105Z" fill="#FB0101"/>
<path d="M131.816 5.04854H121.203V14.7129H128.109V19.0402H121.203V51.2788H113.206V0.649099H131.816V5.04854Z" fill="#FB0101"/>
<path d="M140.864 51.1345H132.868V12.1886H140.864V51.1345ZM140.864 8.5104H132.868V0.504856H140.864V8.5104Z" fill="#FB0101"/>
<path d="M158.546 11.7559C161.599 11.8521 163.853 13.7272 165.306 17.3814C166.76 21.0356 167.875 25.8437 168.65 31.8058C169.474 37.7679 170.371 44.2108 171.34 51.1345H162.762C162.084 44.307 161.502 38.3208 161.017 33.1761C160.533 28.0314 159.951 23.9926 159.273 21.0596C158.643 18.1267 157.698 16.6602 156.438 16.6602C155.323 16.6602 154.475 17.5016 153.893 19.1845C153.312 20.8673 152.9 22.8627 152.657 25.1706C152.463 27.4785 152.342 29.6902 152.294 31.8058V51.1345H144.297V12.1886H152.294V15.362C153.36 13.1503 155.444 11.9482 158.546 11.7559Z" fill="#FB0101"/>
<path d="M195 25.387L180.679 35.1234V39.8835C180.679 44.9801 181.721 47.4563 183.805 47.3121C185.889 47.3121 186.931 44.8359 186.931 39.8835V36.5659H195V39.6671C195 42.9367 193.91 45.7735 191.729 48.1775C189.596 50.5816 186.955 51.7836 183.805 51.7836C180.606 51.7836 177.941 50.5816 175.808 48.1775C173.676 45.7735 172.61 42.9367 172.61 39.6671V23.8003C172.61 20.5307 173.676 17.6939 175.808 15.2899C177.941 12.8858 180.606 11.6838 183.805 11.6838C186.955 11.6838 189.596 12.8858 191.729 15.2899C193.91 17.6939 195 20.5307 195 23.8003V25.387ZM180.679 23.5839V31.2288L186.931 26.9015V23.5839C186.931 18.4873 185.889 16.0351 183.805 16.2275C181.721 16.2275 180.679 18.6796 180.679 23.5839Z" fill="#FB0101"/>
</svg>
